PathFileType	4	(X/Y/Z)	C:/Users/beibeiliu/ov580/test_trc/User2\sequence.2_training_dense_left.trc
DataRate	CameraRate	NumFrames	NumMarkers	Units	OrigDataRate	OrigDataStartFrame	OrigNumFrames
120	120	18	19	mm	120	116	307
Frame#	Time	ThumbCMC			ThumbMCP			ThumbIP			ThumbTip			IndexMCP			IndexPIP			IndexTip			MiddleMCP			MiddlePIP			MiddleTip			RingMCP			RingPIP			RingTip			PinkyMCP			PinkyPIP			PinkyTip			BackHand1			BackHand2			BackHand3	
		X0	Y0	Z0	X1	Y1	Z1	X2	Y2	Z2	X3	Y3	Z3	X4	Y4	Z4	X5	Y5	Z5	X6	Y6	Z6	X7	Y7	Z7	X8	Y8	Z8	X9	Y9	Z9	X10	Y10	Z10	X11	Y11	Z11	X12	Y12	Z12	X13	Y13	Z13	X14	Y14	Z14	X15	Y15	Z15	X16	Y16	Z16	X17	Y17	Z17	X18	Y18	Z18	
115	0.958333	-196.413	33.1057	102.726	-173.46	8.99019	89.6294	-161.824	-23.7736	69.9726	-168.766	-48.5483	64.0212	-223.628	-4.99336	36.2064	-204.202	-35.269	29.4138	-181.893	-44.4237	49.2812	-238.307	-27.2599	43.9608	-211.755	-55.6337	44.9596	-186.362	-53.8582	68.1972	-243.937	-39.1139	59.954	-216.197	-62.6345	60.5359	-192.718	-54.2441	82.8768	-250.216	-50.1677	82.3365	-222.283	-67.0257	83.3939	-197.215	-50.1838	98.9406	-261.631	4.81065	102.044	-260.676	25.5022	128.11	-237.756	39.6035	96.8392	
116	0.966667	-192.24	35.9311	103.726	-165.969	8.72335	85.7953	-150.798	-17.5395	73.306	-156.418	-46.3857	67.1926	-215.435	-11.4712	39.5867	-196.407	-37.003	32.2664	-167.276	-42.1475	53.0782	-227.689	-32.7223	47.0844	-196.037	-55.9578	43.381	-171.177	-51.6948	73.3271	-230.513	-48.0331	64.007	-199.698	-64.4294	62.8631	-176.609	-54.326	86.3913	-231.938	-55.8095	85.163	-203.596	-70.3743	86.514	-179.02	-53.0438	101.737	-253.566	-0.495162	100.736	-257.713	16.3053	130.134	-236.986	35.3681	98.5292	
117	0.975	-188.031	37.5215	102.573	-157.507	13.8971	85.3431	-142.523	-11.2046	73.983	-141.003	-39.0073	68.1426	-207.703	-16.7802	39.231	-182.284	-36.0851	31.4592	-154.442	-38.2322	51.9864	-216.509	-36.3806	48.4315	-185.422	-57.0631	46.0748	-158.006	-48.8028	71.7911	-214.111	-50.1025	63.688	-187.115	-63.3332	62.1997	-161.594	-47.9549	86.4465	-217.999	-59.4558	91.0918	-184.409	-68.0051	88.4269	-161.781	-46.7584	100.113	-244.48	-9.74554	101.655	-247.11	14.5161	131.904	-234.659	26.0306	98.5689	
118	0.983333	-189.17	36.7203	100.826	-156.415	18.6377	84.1984	-138.107	-5.34646	71.9236	-125.895	-30.0111	64.5354	-201.137	-15.4741	37.8507	-172.673	-33.4284	30.1129	-145.234	-32.1961	47.5196	-205.003	-36.2343	47.6993	-171.901	-50.9157	41.5961	-143.013	-38.7582	67.8267	-199.302	-56.0698	65.4811	-170.513	-62.4265	64.2769	-145.936	-39.7599	85.459	-200.836	-59.9128	91.4023	-168.543	-65.0548	87.0768	-147.504	-39.8759	96.088	-237.027	-15.6407	107.031	-242.517	5.95499	134.16	-230.624	26.1427	100.096	
119	0.991667	-190.395	39.3044	98.6252	-155.35	28.6527	80.4647	-131.738	6.7047	66.4385	-120.163	-18.2025	62.4643	-196.279	-12.4681	38.9693	-167.711	-27.7514	27.8606	-135.312	-22.0825	43.0247	-195.206	-39.1345	47.4451	-157.209	-46.4135	40.6067	-129.911	-27.2596	63.0192	-187.069	-52.8409	64.4966	-155.193	-52.6341	59.9475	-134.772	-31.7333	79.679	-184.416	-56.7729	89.1746	-151.534	-56.1295	84.7315	-135.579	-28.3211	92.7172	-227.446	-21.8686	105.029	-235.491	-2.00567	133.767	-231.123	18.7544	101.851	
120	1	-193.485	46.0481	96.8457	-160.525	37.1259	81.943	-132.858	18.5862	65.5793	-117.921	-0.361091	60.4702	-190.466	-15.3015	37.4385	-163.098	-23.3186	27.5922	-131.363	-12.8287	35.6742	-188.811	-35.8693	49.2856	-150.866	-38.7986	36.6465	-124.915	-20.5172	55.1875	-179.216	-45.4098	64.7764	-146.778	-45.5096	57.6643	-125.225	-18.4757	77.1782	-170.922	-50.5267	85.2101	-139.327	-43.2462	78.1911	-125.027	-22.4651	87.1273	-218.964	-22.2525	109.811	-228.377	-4.67781	135.473	-227.9	16.3424	96.404	
121	1.00833	-196.991	48.926	93.5788	-164.406	46.8983	77.8854	-136.305	32.0896	58.7334	-117.698	7.78236	51.6453	-187.05	-13.1121	37.5944	-159.401	-17.6175	24.9884	-127.177	-2.3016	36.2866	-179.094	-33.5578	43.8841	-148.419	-30.6911	31.1913	-119.273	-10.9019	49.8098	-167.565	-43.3793	64.9249	-135.876	-37.5798	57.2835	-120.001	-8.7866	71.904	-163.548	-46.4113	86.3126	-132.127	-38.0307	75.6112	-118.583	-11.6131	84.7474	-210.285	-22.5042	105.141	-223.452	-5.79493	136.237	-228.091	13.3553	98.9229	
122	1.01667	-202.144	48.6352	95.7718	-171.515	51.4568	71.6527	-140.842	43.2608	49.387	-122.825	21.6688	44.2955	-186.126	-9.64502	32.8026	-160.17	-10.1877	20.1984	-132.379	7.94187	26.0326	-176.591	-28.4411	41.667	-143.325	-21.3517	27.8295	-119.196	6.73224	42.7516	-160.12	-37.0158	59.0261	-130.387	-26.5171	51.0258	-117.606	1.44299	64.9316	-153.567	-40.5007	78.8612	-128.389	-27.3743	69.0879	-119.062	2.31839	76.6475	-203.701	-24.2052	103.889	-220.634	-7.80991	133.81	-226.678	13.5569	97.3199	
123	1.025	-207.138	53.176	89.0577	-178.187	57.6197	64.7264	-151.136	50.6759	44.3113	-129.389	36.1755	36.4098	-191.148	-2.59468	29.9631	-158.944	-3.52353	15.371	-134.555	21.4332	23.5481	-176.335	-21.3035	37.1287	-141.78	-13.6823	25.3587	-122.878	17.3275	37.3269	-162.947	-27.813	54.6509	-131.097	-16.6315	44.3872	-119.983	15.2201	57.7779	-154.612	-31.3952	76.8099	-127.811	-15.9025	61.7695	-115.219	9.43169	70.0429	-201.879	-19.3026	105.484	-216.712	-5.73732	128.775	-226.31	11.292	100.076	
124	1.03333	-211.713	53.2476	89.1189	-186.758	60.4163	64.8599	-161.128	59.0374	36.9407	-139.921	43.8689	29.8633	-194.178	-1.64672	30.6059	-167.015	-0.559997	13.3092	-142.222	25.0188	19.0372	-180.322	-16.1127	34.2971	-144.978	-5.55757	20.0835	-128.605	25.8797	32.7837	-162.536	-24.5126	51.4245	-136.935	-11.1588	36.1503	-126.527	24.5639	49.6323	-152.311	-26.8365	73.1317	-128.643	-8.38666	54.9583	-118.646	20.2169	61.6529	-201.487	-16.2368	99.059	-214.28	-5.23148	132.016	-226.105	13.8292	99.6517	
125	1.04167	-218.09	54.1332	88.3898	-196.313	66.1766	62.1495	-172.559	64.1047	34.6308	-150.887	48.5123	23.0435	-202.876	0.246712	28.9149	-177.319	3.2411	6.40892	-151.966	29.552	13.2315	-182.556	-14.7737	29.3613	-152.456	-0.937672	15.2405	-136.986	32.2446	31.1496	-164.976	-22.0345	46.5103	-141.63	-1.8479	28.7497	-130.386	28.0025	43.8211	-154.887	-22.0053	68.0859	-133.885	-4.73502	46.439	-123.35	23.4919	52.3828	-198.761	-16.326	100.244	-211.653	-5.04003	128.643	-228.032	12.8211	98.9916	
126	1.05	-223.263	54.4812	88.2318	-204.954	64.054	61.9342	-183.236	62.8849	27.8543	-161.961	49.1917	16.9855	-209.499	-2.2059	24.5413	-187.366	4.0939	3.68737	-162.775	32.7109	11.4425	-191.204	-15.1117	33.2968	-166.887	0.0288728	8.96594	-150.467	34.1898	23.1586	-168.717	-20.3119	39.9485	-150.148	-2.25493	25.1428	-141.499	29.3239	35.0903	-157.9	-21.7882	64.259	-143.455	-5.22323	40.4104	-133.289	26.4683	45.0885	-201.347	-16.2021	97.8085	-209.706	-0.757824	132.136	-229.806	8.54828	99.4495	
127	1.05833	-230.896	52.6215	89.5194	-214.733	65.9736	57.8451	-194.945	60.557	28.9503	-173.32	45.7105	9.91612	-218.419	-4.76166	27.3183	-200.62	2.26666	3.36945	-177.139	32.7477	7.95273	-201.882	-14.4676	26.6104	-176.491	2.26169	7.30635	-162.889	36.4707	24.1544	-180.281	-19.8388	37.8623	-160.648	-3.87206	21.1591	-155.378	33.4889	30.743	-164.88	-21.6911	60.0865	-147.968	-5.84237	35.7038	-144.987	27.5789	38.7431	-206.363	-13.0521	101.575	-212.39	-4.28674	128.929	-233.563	6.74422	101.063	
128	1.06667	-237.924	51.4432	91.4951	-224.526	62.8866	57.8905	-207.197	57.7124	25.8445	-188.077	46.4053	9.57332	-231.823	-6.4426	32.1393	-212.948	0.580677	3.8526	-197.711	29.165	4.20955	-211.767	-17.7468	28.1601	-191.48	0.124263	4.55759	-176.889	32.7876	22.7856	-190.581	-22.3298	35.8756	-175.072	-6.7896	17.4062	-167.92	30.9971	27.5094	-177.673	-21.2664	59.0183	-160.586	-6.51766	30.7805	-159.776	27.8655	34.6208	-210.499	-14.6746	99.9595	-215.056	-3.244	133.011	-242.366	9.0988	106.537	
129	1.075	-247.136	50.3921	92.6208	-235.025	58.639	58.3283	-221.246	51.908	23.2329	-204.592	41.3353	10.8471	-249.377	-7.26877	35.232	-230.136	0.123303	4.35168	-214.872	27.477	5.55872	-225.471	-21.9903	34.2233	-208.283	-3.15804	6.02611	-193.847	30.2234	21.0966	-204.275	-24.8478	37.8179	-189.593	-9.15221	15.6344	-182.548	26.0655	23.9677	-187.424	-25.3411	57.5894	-178.263	-9.37066	27.8939	-174.821	24.4921	29.1522	-218.92	-15.3733	103.003	-221.766	-1.82469	133.57	-250.261	8.74823	107.512	
130	1.08333	-256.588	46.7659	93.7658	-249.231	53.6441	56.5997	-236.728	47.9333	23.7125	-221.189	33.2208	6.73375	-266.103	-10.793	40.3128	-248.985	-6.57426	8.83647	-230.128	24.6505	10.0006	-245.984	-25.2446	36.5693	-228.703	-11.1048	7.85333	-213.546	23.3066	19.468	-221.565	-30.4459	44.1307	-211.925	-11.3716	14.2494	-201.051	22.7303	22.0033	-204.608	-27.8802	55.2307	-197.177	-14.4041	27.6346	-190.377	17.747	28.1545	-228.126	-20.5146	103.447	-225.417	-1.98635	134.17	-257.82	8.08397	115.05	
131	1.09167	-264.611	45.6154	99.0048	-260.782	50.3862	61.0913	-253.898	45.0996	27.4276	-237.937	26.6381	9.93276	-281.438	-15.8359	45.1082	-271.375	-12.8003	15.8291	-248.546	15	12.9983	-264.023	-31.7496	41.9076	-249.443	-17.3743	11.744	-230.118	17.5273	23.1134	-239.501	-34.7319	45.7723	-228.572	-21.0948	16.9504	-216.751	11.4245	20.9289	-222.856	-31.6403	58.8429	-213.764	-20.7047	28.632	-205.383	13.0779	27.5511	-236.803	-20.6333	109.391	-235.815	-3.24975	137.839	-265.313	6.92814	120.552	
132	1.1	-275.432	43.8415	101.662	-274.23	48.6656	61.9873	-270.39	37.946	29.1061	-257.633	21.1184	12.3913	-297.442	-18.4642	55.2937	-287.959	-17.7278	23.3203	-268.397	9.64239	16.0851	-283.149	-35.1711	49.5147	-268.415	-24.2885	18.5441	-247.719	11.4106	26.3173	-263.028	-38.5223	50.9924	-250.14	-27.4727	22.2564	-239.113	4.92071	22.6977	-241.366	-37.2538	63.8682	-235.504	-26.5842	31.7532	-224.049	3.83226	31.5365	-252.43	-21.3387	111.478	-243.684	-1.46423	143.907	-279.717	5.09437	122.883	
